<?xml version="1.0" encoding="utf-8"?>
<!-- Generator: Adobe Illustrator 18.1.1, SVG Export Plug-In . SVG Version: 6.00 Build 0)  -->
<!DOCTYPE svg PUBLIC "-//W3C//DTD SVG 1.1//EN" "http://www.w3.org/Graphics/SVG/1.1/DTD/svg11.dtd">
<svg version="1.1" id="Layer_1" xmlns="http://www.w3.org/2000/svg" xmlns:xlink="http://www.w3.org/1999/xlink" x="0px" y="0px"
	 viewBox="0 0 792 612" enable-background="new 0 0 792 612" xml:space="preserve">
<g>
	<path fill="#DC1F26" d="M689,238c-16.5-18.6-107.9-17.6-146.6-16.3c-5-21.8-28.8-40.5-65.6-51.1c-1.7-7.4-8.8-13.1-17.2-13.1
		c-5.7,0-10.7,2.5-13.9,6.5c-12.4-1.8-25.5-2.7-39-2.7c-15.7,0-30.8,1.3-44.9,3.7c-3.2-4.5-8.5-7.4-14.6-7.4
		c-9.2,0-16.8,6.7-17.5,15.2c-33.8,11-57.3,29.2-61.9,50.1c-0.5-0.3-0.9-0.4-0.9-0.4s-143-8.3-164,15.5S-12,323.5,7.6,375.3
		c0,0,13.7,15.2,18.2-26.6c0,0,54.7-65.9,78.5-71.5c0,0,18.3-1.1,20.3-11.7c0,0,37.9-2.2,75.4-6.2c-27,6.5-50.5,14.9-56.7,24.8
		c-16.9,26.9-99.6,103-71.8,151c0,0,16,12.7,13.7-29.2c0,0,43.3-73.9,65.9-83.3c0,0,17.9-4,18.2-14.9c0,0,52-11.6,93.3-24
		c-29.7,13.7-62.6,33.5-63,53.7c-0.5,20.6-8.3,41.5,1.9,69.8c0,0,13.8,44.9,20.2,29.7c6.4-15.2,8.1-15.5,2.5-41.5
		c-11.5-53.5,38.2-79.7,86-115c25.1,11.8,59.1,19.1,96.6,19.1c43.6,0,81.6-9.9,106.4-25.4c38,27.1,69.6,52.6,60.2,96.4
		c-5.6,26-3.9,26.3,2.5,41.5c6.4,15.2,20.2-29.7,20.2-29.7c10.2-28.3,2.3-49.2,1.9-69.8c-0.2-9.9-8.2-19.7-19.8-28.7
		c34.6,14.2,69.7,26.7,69.7,26.7c-1,10.8,16.3,17,16.3,17c21.3,12.1,55.3,90.7,55.3,90.7c-7.4,41.4,10,30.7,10,30.7
		c33.4-44.3-39.5-129.9-53-158.6c-4.3-9.1-21.2-18.6-42.3-27.2c19.3,1.5,33.2,2.3,33.2,2.3c2.1,10.7,20.3,11.7,20.3,11.7
		c23.8,5.6,78.5,71.5,78.5,71.5c4.5,41.8,18.2,26.6,18.2,26.6C803.9,323.5,710,261.8,689,238z"/>
	<path fill="#DC1F26" d="M352,336.9l8.7-20.7c0.4-1.8-0.8-3.6-2.6-4.1l-18-4.4c-2.2-0.5-4.3,1.1-4.3,3.3l-3.8,25.5
		c0,2.7-1.1,5.3-2.9,7.4c-9.8,11.1-39.9,51.8-5.5,102.3c1.3,1.9,4.3,1.2,4.6-1.1l1.2-3.3l-0.4-3.6l1.5-4.1l-0.5-4.6l0.9-4.2
		l-0.1-2.8l1.2-2l-0.5-4l1.1-3.2l-0.4-2.8l1.5-2.9l-0.7-3.4l1.2-2.4l-0.2-5.6c0,0,2.7,5.5,6.1-0.2l-0.3,5.6l1.2,2.3l-0.5,3.4
		l1.3,3.9l-0.3,4l1.2,3.2l-0.4,3.8l1,3.2l-0.5,3.3l1.4,4.6l-0.7,3.3l1.3,2.6l-0.6,3.3l1.3,3.1c0.2,2.2,3,3,4.4,1.3
		c8.6-10.3,27.1-41.5,2.6-103.5C351.8,341.3,351.6,339,352,336.9z"/>
	<path fill="#DC1F26" d="M495.3,333.4l-3.8-25.5c0-2.2-2.1-3.9-4.3-3.3l-18,4.4c-1.8,0.4-3,2.2-2.6,4.1l8.7,20.7
		c0.4,2.2,0.2,4.4-0.6,6.5c-24.5,62-6.1,93.3,2.6,103.5c1.4,1.7,4.2,0.9,4.4-1.3l1.3-3.1l-0.6-3.3l1.3-2.6l-0.7-3.3l1.4-4.6
		l-0.5-3.3l1-3.2l-0.4-3.8l1.2-3.2l-0.3-4l1.3-3.9l-0.5-3.4l1.2-2.4l-0.3-5.6c3.4,5.7,6.1,0.2,6.1,0.2l-0.2,5.6l1.2,2.4l-0.7,3.4
		l1.5,2.9l-0.4,2.8l1.1,3.2l-0.5,4l1.2,2l-0.1,2.8l0.9,4.2l-0.5,4.6l1.5,4.1l-0.4,3.6l1.2,3.3c0.3,2.3,3.3,3,4.6,1.1
		c34.4-50.5,4.3-91.2-5.5-102.3C496.4,338.8,495.4,336.2,495.3,333.4z"/>
</g>
</svg>
