<?xml version="1.0" encoding="utf-8"?>
<!-- Generator: Adobe Illustrator 18.1.1, SVG Export Plug-In . SVG Version: 6.00 Build 0)  -->
<!DOCTYPE svg PUBLIC "-//W3C//DTD SVG 1.1//EN" "http://www.w3.org/Graphics/SVG/1.1/DTD/svg11.dtd">
<svg version="1.1" id="Layer_1" xmlns="http://www.w3.org/2000/svg" xmlns:xlink="http://www.w3.org/1999/xlink" x="0px" y="0px"
	 viewBox="0 0 792 612" enable-background="new 0 0 792 612" xml:space="preserve">
<g>
	<path fill="#DC1F26" d="M448.9,560.7c-18.3-1.3-14.5-13.6-14.5-13.6l2.4-41.8c8.3-13.2,13.6-26.9,14.8-39.3
		c6.4-64.1,7.5-130.2,4.1-194.5c-1.1-21.1-2.5-42.3-9.2-62.6c-3.2-9.7-4.4-16.8-3.1-26.9c1.3-9.6,0.4-19.4-3.3-28.4
		c-7.1-17.1-20-35.5-37.2-43.4c-16.3-7.5-46.8-44.2-11.3-46.9c0,0-4.4-32.5,23.1-23.1c0,0,21.3-1.9,25-5.6c0,0-53.8-62.5-124.4-14.4
		c-27.1,18.5-31.9,64.3-30.8,93.3c0.5,13.3,2.3,26.6,4.9,39.6c3,15.2,12.3,30.8,8.5,46.5c-1.5,6-3.6,12.1-6.3,17.7
		c-0.7,1.4-11,16.4-11.4,15.5c17.4,37.5,15.9,86.4,10.8,126.1c-2.2,17.3-5.6,34.4-10.1,51.2c-4,15.4-12.2,31.3-14.5,47.3
		c-0.5,3.4-0.7,6.8-0.6,10.3c0.4,10.5,1.3,20.9,3.2,31.2c3.3,18.1,9.8,38.4,22.9,52l0.1,2.6c0,0,3.8,12.3-14.5,13.6
		c-18.3,1.3-72.3,16.2-74.5,20.8c-2.1,4.7,6.8,4.7,6.8,4.7s61.7,0.9,63.8,8.1s6.9-0.2,10.6,0c3.7,0.2,46-14,53-14c7,0,13-4.2,7-6.4
		c-4.8-1.7-18.6-4.9-25.7-14.6c2.6,0.5,5.2,0.8,7.8,1c34.4,2,66-13.7,88.8-35.4c-1.2,6.7-2.6,13.9-4,20.1
		c-3.8,16.2-23.4,20.4-29.4,22.5c-6,2.1,0,6.4,7,6.4c7,0,49.3,14.2,53,14c3.7-0.1,8.5,7.2,10.6,0c2.1-7.2,63.8-8.1,63.8-8.1
		s8.9,0,6.8-4.7C521.3,576.9,467.2,562,448.9,560.7z"/>
	<path fill="#DC1F26" d="M549.5,88.2c-23.2-10.7-48.3-16.6-70.3-29.9c-2.2-1.3-34.3-20.2-35.4-19.5c-4,2.3-25.1,8.8-25.1,8.8
		c-28.8-7.5-19.9,21.1-19.9,21.1c-39.6,3.1,11,38.1,11,38.1c23-2.5,42.8-2.3,66-1.6c25.6,0.8,48.9,11.3,74.2,13.5
		c14.1,1.2,28.3,1.8,42.4,1.4C592.3,106.3,559.1,92.7,549.5,88.2z"/>
	<path fill="#DC1F26" d="M266.7,434c15-36.3,32.5-145.1,6.2-198.2c0,0-101.5,20.7-11.2,266.1C261.8,501.8,251.7,470.3,266.7,434z"/>
	<path fill="#DC1F26" d="M455,211.6c18.5,78.3,4.2,254.4,4.2,254.4C550.8,293.8,480,199.7,455,211.6z"/>
</g>
</svg>
