<?xml version="1.0" encoding="utf-8"?>
<!-- Generator: Adobe Illustrator 18.1.1, SVG Export Plug-In . SVG Version: 6.00 Build 0)  -->
<!DOCTYPE svg PUBLIC "-//W3C//DTD SVG 1.1//EN" "http://www.w3.org/Graphics/SVG/1.1/DTD/svg11.dtd">
<svg version="1.1" id="Layer_1" xmlns="http://www.w3.org/2000/svg" xmlns:xlink="http://www.w3.org/1999/xlink" x="0px" y="0px"
	 viewBox="0 0 792 612" enable-background="new 0 0 792 612" xml:space="preserve">
<g>
	<path fill="#DC1F26" d="M364.3,513.5c0,0-113.5-271.8-42.2-411.7c0,0-84.5,36.9-87.1,68.6c-2.6,31.7-17.4,205.9,17.7,327.3
		c0,0,44.2,79.2,187.4,108.2C440.1,605.9,340.5,553.1,364.3,513.5z"/>
	<path fill="#DC1F26" d="M683.5,325.2l-91.1,28.6c0,0,50.1-117.4-73.9-157c0,0-63.3-15.8-84.5-58.1c0,0-126.7,163,153.1,398.5
		c0,0,29,15.8,0-126.7l80.9,59.6c10.7,7.9,26,3.2,30.4-9.3c8-22.6,16.5-61.7,10.6-118.7C707.8,329.7,695.4,321.5,683.5,325.2z"/>
	<path fill="#DC1F26" d="M417.6,138.7c0,0,66.9-142.5,319.3-105.6c0,0-158.4-87.1-398.5,68.6c0,0-73.9,110.8,42.2,411.7
		c0,0,121.4,47.5,190,23.8C570.7,537.2,304.1,331.4,417.6,138.7z"/>
	<path fill="#DC1F26" d="M218.1,164c-1.7,19.5-23.6,31.9-35.4,45.1c-14.2,16-12.1,37.4-28.1,52c-8.7,8-19.3,13.8-28.4,21.3
		c-12.7,10.6-22,24.5-34.1,35.7c-10.8,10-33.4,12.3-40.4,26.3c-9.7,19.6,26.6,32.2,37.6,42.7c12.6,11.9,24.8,24.2,36.9,36.6
		c47.5,84.5,110.1,73.9,110.1,73.9C198.5,389.4,218.1,164,218.1,164z"/>
</g>
</svg>
