<?xml version="1.0" encoding="utf-8"?>
<!-- Generator: Adobe Illustrator 18.1.1, SVG Export Plug-In . SVG Version: 6.00 Build 0)  -->
<!DOCTYPE svg PUBLIC "-//W3C//DTD SVG 1.1//EN" "http://www.w3.org/Graphics/SVG/1.1/DTD/svg11.dtd">
<svg version="1.1" id="Layer_1" xmlns="http://www.w3.org/2000/svg" xmlns:xlink="http://www.w3.org/1999/xlink" x="0px" y="0px"
	 viewBox="0 0 792 612" enable-background="new 0 0 792 612" xml:space="preserve">
<g>
	<path fill="#DC1F26" d="M597.4,231.5c-11.3,4-23.8,3.1-34.7-2.1c-12.7-6.1-29.1-11.9-31.3-12.2c-10.4-1.2-23-6.1-36.5-6.9
		c-40.3-2.6-74.9-8-104.1,33.1c-9.3,13-25.1,18.8-25.1,5c0-30.5-13.1-78.6-172.1-63.6c-104.9,9.9-148.4,47.9-165.9,72.7
		c-12.4,17.6-10.9,41.7,4.1,57.2C72.2,356.4,178.6,373,178.6,373c101.2,20.9,146.6,0.6,165.8-15.8c7-5.9,12-13.8,14.3-22.7
		c1.8-7.2,5.3-14.9,12.5-16.4c9.4-1.8,13.9,8,19.3,13.5c6.2,6.3,13.9,11.6,21.2,16.2c13,8.4,27.2,14.9,42.1,19.1
		c27.5,7.8,56.7,8.2,84.8,3.4c9.1-1.6,18.2-3.7,27-6.4c1.2-0.4,8.8-4,9.9-3.4c85.6,50.2,80.5-73.2,80.5-73.2
		C654.1,222.5,620.2,223.4,597.4,231.5z"/>
	<path fill="#DC1F26" d="M55.8,128c62,8.6,307.4,46.4,357.2,69.5c15.8,7.4,39.2,13.1,54.4,0.6c4-3.3,5-6.7,3.8-10.1
		c-6.3-17.5-71-35-84.2-40c-43.4-16.5-87.2-31.9-131.7-45.2c-43.5-13-88.1-25-133.3-29.9c-27.2-3-65.2-6.8-87.9,12.5
		c-0.6,0.6-1.2,1.2-1.9,1.8C32,87.3-6.2,119.4,55.8,128z"/>
	<path fill="#DC1F26" d="M404.6,373.8c-51.7,18.6-299.5,34.1-362,37.1c-62.5,3-27.3,38.4-27.2,38.5c0.6,0.6,1.1,1.3,1.7,1.9
		c20.8,21.3,59,20.9,86.4,20.4c45.5-0.9,91-8.8,135.5-17.8c45.5-9.3,90.5-20.7,135.2-33.2c13.6-3.8,79.6-15.5,87.5-32.3
		c1.5-3.3,0.8-6.7-2.8-10.4C444.9,364.2,421,367.9,404.6,373.8z"/>
	<path fill="#DC1F26" d="M669.3,287.7c1.9,0,3.4-1.6,4.6-3c9.2-11.2,13.4-24.8,21-36.9c9.4-14.9,19.2-29.9,30.3-43.5
		c11.6-14.2,70.2-78.3,59.7-109.6c-1.5-4.4-4.7-16.5-10.9-17.2c-7.8-0.8-7.2,12.8-7.7,17.4c-0.8,7.7-2.1,15.3-3.9,22.8
		c-5,20.7-14.1,41.1-29.3,56.3c-14.8,14.8-27.3,33.2-39.2,50.3c-2.1,3-20.9,32.1-26.9,49.8C664.4,282.1,664.3,287.7,669.3,287.7z"/>
	<path fill="#DC1F26" d="M688.9,367.2c-5.5-13.2-7.3-27.3-14.5-39.9c-0.9-1.7-2.2-3.4-4.1-3.8c-5-0.9-5.8,4.7-4.5,13
		c3,18.5,16.6,50.3,18.2,53.6c8.9,18.9,18.1,39.1,30.2,56.2c12.5,17.6,18,39.2,19.4,60.4c0.5,7.7,0.5,15.4,0,23.1
		c-0.3,4.7-3.2,18,4.7,18.5c6.2,0.4,11.4-11,13.6-15.1c15.7-29.1-31.3-102.1-40.4-118.1C702.8,399.9,695.6,383.4,688.9,367.2z"/>
</g>
</svg>
