<?xml version="1.0" encoding="utf-8"?>
<!-- Generator: Adobe Illustrator 18.1.1, SVG Export Plug-In . SVG Version: 6.00 Build 0)  -->
<!DOCTYPE svg PUBLIC "-//W3C//DTD SVG 1.1//EN" "http://www.w3.org/Graphics/SVG/1.1/DTD/svg11.dtd">
<svg version="1.1" id="Layer_1" xmlns="http://www.w3.org/2000/svg" xmlns:xlink="http://www.w3.org/1999/xlink" x="0px" y="0px"
	 viewBox="0 0 792 612" enable-background="new 0 0 792 612" xml:space="preserve">
<g>
	<path fill="none" d="M393.7,272.3c-19,0-34.4,15.4-34.4,34.4s15.4,34.4,34.4,34.4s34.4-15.4,34.4-34.4S412.7,272.3,393.7,272.3z"/>
	<path fill="#752020" d="M306.2,342.9c-35.9,14.9-35.9-87.4,0-72.5c-18.1-7.5-8.7-29.6,7-45C102.1-24.7-31.5,448,298.5,366.9
		C294.4,356.7,295.6,347.3,306.2,342.9z"/>
	<path fill="#752020" d="M357.5,394.2c-10.4,25.2-49.3-3.1-59-27.2c-341.7,92.4,108,460,101,53.9C376,422.6,349.4,413.7,357.5,394.2
		z"/>
	<path fill="#752020" d="M357.5,219.1c-14.9-35.9,87.4-35.9,72.5,0c6.1-14.8,21.9-11.2,36-0.9C618.8-75,158.2-57.6,316,222.8
		C331.1,209.2,350.5,202.4,357.5,219.1z"/>
	<path fill="#752020" d="M467.6,219.5c19.3,15.1,34.1,42.4,13.6,50.9c35.9-14.9,35.9,87.4,0,72.5c35.9,14.9-36.4,87.1-51.3,51.3
		c6.8,16.3-10.8,25.2-30.5,26.7c8.8,408.5,441.3,12.9,93.9-58.9C832.7,432.1,665.7-59.6,467.6,219.5z"/>
	<path fill="#752020" d="M298.5,366.9C298.5,366.9,298.5,366.9,298.5,366.9c1.5-0.3,3.1-0.7,4.6-1.1
		C301.5,366.1,300,366.5,298.5,366.9z"/>
	<path fill="#752020" d="M399.5,420.9L399.5,420.9c0-0.4,0-0.8,0-1.2C399.5,420.1,399.5,420.5,399.5,420.9z"/>
	<path fill="#752020" d="M457,280.5c25.9-10.7-26.3-62.9-37.1-37.1c10.7-25.9-63.1-25.9-52.4,0c-10.7-25.9-62.9,26.3-37.1,37.1
		c-25.9-10.7-25.9,63.1,0,52.4c-25.9,10.7,26.3,62.9,37.1,37.1c-10.7,25.9,63.1,25.9,52.4,0c10.7,25.9,62.9-26.3,37.1-37.1
		C482.9,343.6,482.9,269.7,457,280.5z M393.7,341c-19,0-34.4-15.4-34.4-34.4s15.4-34.4,34.4-34.4s34.4,15.4,34.4,34.4
		S412.7,341,393.7,341z"/>
</g>
</svg>
