<?xml version="1.0" encoding="utf-8"?>
<!-- Generator: Adobe Illustrator 18.1.1, SVG Export Plug-In . SVG Version: 6.00 Build 0)  -->
<!DOCTYPE svg PUBLIC "-//W3C//DTD SVG 1.1//EN" "http://www.w3.org/Graphics/SVG/1.1/DTD/svg11.dtd">
<svg version="1.1" id="Layer_1" xmlns="http://www.w3.org/2000/svg" xmlns:xlink="http://www.w3.org/1999/xlink" x="0px" y="0px"
	 viewBox="0 0 792 612" enable-background="new 0 0 792 612" xml:space="preserve">
<g>
	<path fill="none" stroke="#DC1F26" stroke-width="0" stroke-linecap="round" stroke-linejoin="round" d="M372.3,249.2
		c-0.4,0.2-0.7,0.4-1.1,0.5"/>
	<path fill="#DC1F26" d="M307,54.9c3.3,0.5,6.5-0.7,8.7-2.8c1.2,0.7,2.7,1.4,4.4,1.9c0.3,6,2.6,11.9,6.6,16.5
		c-7,9.5-11.3,20.9-13.6,32.5c-3.3,16.5-6.4,37.3,7.7,49.9c3.5,3.2,7.5,5.8,11.7,7.9c0.8,0.4,4.2,2.7,5.1,2.3c13.6,36-8,62-8,62
		c46.9-20.8,62.2,11.3,62.2,11.3c1.4,59.4,61.3,29.8,87.1,14.2c5.2,6.8,13.5,10.8,22.2,10.6c0.8,1.8,1.6,3.3,2.5,4.4
		c-2.6,2.7-3.8,6.8-2.7,10.7c1.7,5.8,7.8,9.2,13.6,7.5c5.9-1.7,9.2-7.8,7.5-13.6c-1.7-5.9-7.8-9.2-13.6-7.5
		c-0.3,0.1-0.6,0.2-0.9,0.3c0-0.8-0.1-1.7-0.2-2.7l0.4-0.1c4.7-1.4,8.8-3.9,12-7.2c1.7,1.4,3.4,2.4,4.9,3c-0.5,1.9-0.5,3.9,0.1,5.9
		c1.8,6.2,8.2,9.8,14.4,8c6.2-1.8,9.8-8.2,8-14.4c-1.8-6.2-8.2-9.7-14.4-8c-1.1,0.3-2.2,0.8-3.1,1.4c-0.8-2-2-4.2-3.7-6.5
		c0.6-1.7,0.9-3.5,1.1-5.4c2.2-0.8,4.1-1.7,5.7-2.9c3,2.8,7.3,4,11.6,2.8c6.5-1.9,10.2-8.6,8.4-15.1c-1.9-6.5-8.6-10.2-15.1-8.4
		c-4.4,1.3-7.6,4.8-8.5,9c-1.4,0-2.9,0.1-4.4,0.3c-1.9-3.9-4.6-7.2-7.9-9.8c0.1-1.7,0.1-3.3-0.1-4.8c1.3,0,2.5-0.2,3.8-0.7
		c5.7-2.1,8.5-8.4,6.5-14c-2.1-5.6-8.4-8.5-14-6.4c-5.7,2.1-8.5,8.4-6.5,14c0.4,0.9,0.8,1.8,1.4,2.6c-1,1.1-1.9,2.4-2.8,4.1
		c-3.9-0.7-8.1-0.5-12.1,0.6c-1.1,0.3-2.2,0.7-3.3,1.2c-0.8-0.8-1.6-1.4-2.4-2c2.8-3.6,2.9-8.8,0.1-12.6c-3.5-4.7-10-5.6-14.6-2.1
		c-4.7,3.5-5.6,10-2.1,14.6c2,2.7,5,4.1,8.1,4.2c0.4,1.4,1,2.9,1.8,4.5c-3.2,3.5-5.4,7.9-6.4,12.6c-3,0.8-5.5,1.4-6.3,1.6
		c-5.2,1.2-10.8,2-16.1,1.4c-7.2-0.8-13.1-4.2-16.1-11c-7-15.8-1.8-43,11.5-54.3c2.1-1.7,14.1-11.8,17.1-10.1
		c1.4,0.8,27.7,16,57.9,6.3c30.3-9.7,48.5-73.9,37.6-90.2C548.6,56,486.4,44.2,453,61.9c-33.4,17.7-17.7,35.4-19.8,50.2
		c-0.1,1.1-0.4,2.1-0.8,3.1c-3.1,8.2-12.9,10-20.6,11.4c-1.3,0.2-2.6,0.5-3.9,0.7c-9.8,1.8-19.7,3.8-29.7,3.3
		c-12.3-0.6-24.2-5.8-28.4-18.2c-3.5-10.4-2.5-22.1-0.5-32.7c6.5-0.5,12.7-3.5,17.3-8.3c1.8,0.7,3.5,1.2,4.8,1.4
		c0.1,3.8,2.1,7.5,5.7,9.5c5.3,2.9,12,1,14.9-4.3c3-5.3,1-12-4.3-14.9c-5.3-3-12-1-14.9,4.2c-0.2,0.3-0.3,0.6-0.4,0.9
		c-0.6-0.6-1.3-1.2-2.1-1.8l0.2-0.3c2.4-4.3,3.5-9,3.4-13.6c2.2-0.2,4.1-0.7,5.6-1.3c1,1.7,2.4,3.1,4.2,4.1
		c5.6,3.2,12.7,1.1,15.9-4.5c3.1-5.6,1.1-12.7-4.5-15.8c-5.6-3.1-12.7-1.1-15.8,4.5c-0.6,1-1,2.1-1.2,3.2c-2-0.9-4.4-1.6-7.2-2
		c-0.8-1.6-1.9-3.2-3-4.6c1-2.1,1.7-4.1,2-6.1c4.1-0.1,8-2.4,10.2-6.2c3.3-5.9,1.1-13.3-4.7-16.6c-5.9-3.3-13.3-1.1-16.6,4.7
		c-2.2,4-2,8.8,0.4,12.4c-1,1-2,2-2.9,3.3c-4.1-1.4-8.4-1.9-12.5-1.4c-1.1-1.3-2.3-2.5-3.4-3.3c0.9-0.9,1.7-1.9,2.2-3.1
		c2.5-5.5,0.1-12-5.3-14.5c-5.5-2.5-12-0.1-14.5,5.4c-2.5,5.5-0.1,12,5.3,14.5c0.9,0.4,1.8,0.7,2.8,0.9c0.1,1.4,0.4,3.1,0.9,4.8
		c-3.3,2.3-6.1,5.3-8.2,9c-0.6,1-1,2.1-1.5,3.1c-1.1,0.1-2.2,0.1-3.1,0.3c-0.5-4.5-4.1-8.3-8.8-9c-5.7-0.8-11.1,3.1-11.9,8.8
		C297.3,48.8,301.3,54.1,307,54.9z"/>
	<path fill="#DC1F26" d="M590.9,281.4c39,40.3,68.1,95.7,40.7,150.4c-23.8,47.6-73.9,81.6-123.5,97.8c-43.2,14.2-98.9,16.5-132-19.9
		c-9.4-10.4-16.3-22.9-21.1-36.1c-2.3-6.4-3-14.9-6.4-20.8c-2.7-4.5,4.6-15,6.7-18.8c3.8-6.8,8-13.3,12.7-19.4
		c0.7-1,11.5-14.2,12.1-9.1c0.8,6.6,10.5,22.9,17.4,33.9c-0.8,2.2-1.3,4.5-1.5,6.9c-1.9,0.6-3.5,1.3-4.6,2
		c-2.4-2.9-6.3-4.5-10.3-3.8c-6,1-10,6.7-9,12.7c1,6,6.7,10,12.7,9c6-1,10-6.7,9-12.7c-0.1-0.3-0.1-0.7-0.2-1
		c0.8,0.1,1.7,0.1,2.7,0.1l0.1,0.4c0.8,4.8,2.9,9.2,5.9,12.7c-1.6,1.6-2.8,3.1-3.6,4.5c-1.8-0.7-3.8-0.9-5.9-0.5
		c-6.4,1.1-10.6,7.1-9.5,13.5c1.1,6.3,7.1,10.6,13.4,9.5c6.4-1.1,10.6-7.1,9.5-13.4c-0.2-1.2-0.6-2.2-1.1-3.2
		c2.1-0.5,4.4-1.6,6.8-2.9c1.7,0.7,3.4,1.3,5.2,1.7c0.5,2.3,1.3,4.3,2.3,6c-3.1,2.7-4.8,6.9-4,11.2c1.1,6.6,7.5,11.1,14,9.9
		c6.6-1.1,11.1-7.5,9.9-14c-0.8-4.5-4-8.1-8.1-9.4c0.2-1.4,0.3-2.9,0.2-4.4c4.1-1.4,7.7-3.8,10.6-6.8c1.7,0.4,3.3,0.5,4.8,0.4
		c-0.2,1.3-0.1,2.6,0.3,3.8c1.5,5.9,7.4,9.4,13.2,7.9c5.8-1.5,9.4-7.4,7.9-13.2c-1.4-5.9-7.4-9.4-13.3-7.9c-1,0.2-1.9,0.6-2.7,1.1
		c-1-1.1-2.2-2.2-3.7-3.2c1.1-3.8,1.4-8,0.7-12.1c-0.2-1.2-0.5-2.3-0.8-3.4c0.8-0.7,1.6-1.5,2.3-2.2c3.3,3.2,8.4,3.9,12.5,1.5
		c5-3,6.6-9.4,3.7-14.3c-2.9-5-9.4-6.6-14.3-3.7c-2.9,1.7-4.6,4.5-5,7.6c-1.4,0.2-3,0.7-4.7,1.3c-3.5-4-8.2-6.9-13.5-8.2
		c-2.2-6.4-3.7-14.6-4.2-16.5c-1.6-6-3.5-11.8-3.2-18c0.2-6.3,1.9-12.5,1.9-18.9c0-11.5-5.4-21-14.8-27.7
		c-24.8-17.6-78.7,12.1-78.7,12.1s-0.1,0.1-0.4,0.2c-60.1,17.8-49.1,63.3-49.1,63.3c-7.7-37.1-62.2-29.6-62.2-29.6
		c-6.8-0.7-31.6-3.5-56.3,0.7c-21.3,3.6-29.5,54.5-31.5,70.5c-0.2,0.2-0.5,0.5-0.7,0.7c-1.8-0.8-3.5-1.3-4.8-1.5
		c0-3.8-2-7.5-5.5-9.5c-5.3-3-12-1.2-15,4.1c-3,5.3-1.2,12,4.1,15c5.3,3,12,1.2,15-4c0.2-0.3,0.3-0.6,0.4-0.9c0.6,0.6,1.3,1.2,2,1.8
		l-0.2,0.3c-2.4,4.2-3.6,8.9-3.6,13.5c-2.2,0.2-4.1,0.6-5.6,1.2c-1-1.7-2.4-3.1-4.2-4.2c-5.6-3.2-12.7-1.3-15.9,4.3
		c-3.2,5.6-1.3,12.7,4.3,15.9c5.6,3.2,12.7,1.3,15.9-4.3c0.6-1,1-2.1,1.2-3.1c1.9,0.9,4.4,1.6,7.1,2.1c0.8,1.6,1.8,3.2,2.9,4.6
		c-1,2.1-1.7,4.1-2.1,6c-4.1,0.1-8.1,2.2-10.2,6.1c-3.3,5.8-1.3,13.3,4.5,16.6c5.8,3.3,13.3,1.3,16.6-4.5c2.3-4,2.1-8.8-0.2-12.4
		c1-1,2-2,3-3.3c4.1,1.5,8.3,2,12.5,1.6c1.1,1.3,2.2,2.5,3.4,3.4c-0.9,0.8-1.7,1.9-2.2,3.1c-2.6,5.4-0.3,12,5.1,14.6
		c5.4,2.6,11.9,0.3,14.5-5.1c2.6-5.4,0.3-12-5.1-14.6c-0.9-0.4-1.8-0.7-2.8-0.9c0-1.4-0.3-3.1-0.8-4.8c3.3-2.2,6.2-5.2,8.3-8.9
		c0.6-1,1.1-2,1.5-3.1c1.1,0,2.2-0.1,3.2-0.2c0.5,4.5,4,8.4,8.7,9.1c5.7,0.9,11.1-3,12-8.7c0.9-5.7-3-11.1-8.7-12
		c-3.3-0.5-6.5,0.5-8.7,2.7c-1.2-0.7-2.7-1.4-4.4-2c-0.1-3.3-0.8-6.5-2-9.5c3.3-10.5,18.9-21,18.9-21c5.6,6.2,51,23.5,51,23.5
		c2.7,1.1,6.8,18.2,8,21.3c2.8,7.4,5.8,14.8,9,22.1c11.8,26.4,28.1,49.3,52.6,65.2c22.1,14.3,48.2,22.2,73.9,25.7
		c46.9,6.3,96.6,3.7,141.7-11.1c19.3-6.3,37.8-15.1,54.7-26.3c57-38.1,95.4-107.6,94.6-176.5C677.5,294.7,590.9,281.4,590.9,281.4z"
		/>
	<path fill="#DC1F26" d="M276.1,394.9c0,0-8.2-32.8,51.9-50.6c0,0-11.4-83.7,56.4-106.4c0,0-13.1-26.2-69.1-1.1
		c0,0,28.5-30.6,14.9-66.6c0,0-120.4,34.5-113.5,208.8C216.7,379,269.5,372.4,276.1,394.9z"/>
</g>
</svg>
